<?xml version="1.0" encoding="utf-8"?>
<!-- Generator: Adobe Illustrator 27.8.1, SVG Export Plug-In . SVG Version: 6.00 Build 0)  -->
<svg version="1.1" id="Layer_1" xmlns="http://www.w3.org/2000/svg" xmlns:xlink="http://www.w3.org/1999/xlink" x="0px" y="0px"
	 width="100" height="100" viewBox="0 0 100 100" style="enable-background:new 0 0 118.7 86.8;" xml:space="preserve">
<style type="text/css">
	.st0{fill:#231F20;}
</style>
<g>
	<path class="st0" d="M13.8,23.8c-0.7-0.3-1.4-0.4-2-0.4c-1.8,0-2.7,1-2.7,3v2h4.1v3.9H9.2v14H3.9v-14H1v-3.9h3V26
		c0-2,0.7-3.7,2-4.9c1.3-1.2,3.1-1.8,5.2-1.8c1.1,0,2,0.1,2.7,0.3L13.8,23.8L13.8,23.8z"/>
	<path class="st0" d="M31.8,38.7H20c0.2,2.8,1.9,4.2,5,4.2c2,0,3.7-0.5,5.2-1.5v3.8c-1.6,0.9-3.8,1.4-6.4,1.4
		c-2.8,0-5.1-0.8-6.6-2.4c-1.6-1.6-2.4-3.8-2.4-6.7c0-2.8,0.8-5.2,2.5-7c1.7-1.8,3.8-2.7,6.3-2.7c2.5,0,4.5,0.8,5.9,2.3
		c1.4,1.5,2.1,3.6,2.1,6.3L31.8,38.7L31.8,38.7z M26.9,35.4c0-2.7-1.1-4-3.2-4c-0.9,0-1.7,0.4-2.4,1.1c-0.7,0.7-1.1,1.7-1.3,2.9
		L26.9,35.4L26.9,35.4z"/>
	<path class="st0" d="M51.9,28.3l-7.4,19.5c-1.7,4.5-4.3,6.8-7.7,6.8c-1.3,0-2.4-0.1-3.1-0.4V50c0.7,0.4,1.5,0.6,2.3,0.6
		c1.4,0,2.4-0.7,3-2.1l1-2.3l-7.2-17.8h5.8l3.5,11.2c0.2,0.7,0.4,1.4,0.5,2.3h0.1c0.1-0.6,0.2-1.3,0.5-2.3l3.6-11.2L51.9,28.3
		L51.9,28.3z"/>
	<path class="st0" d="M70.8,28.3l-7.4,19.5c-1.7,4.5-4.3,6.8-7.7,6.8c-1.3,0-2.4-0.1-3.1-0.4V50c0.7,0.4,1.5,0.6,2.3,0.6
		c1.4,0,2.4-0.7,3-2.1l1-2.3l-7.2-17.8h5.8L61,39.5c0.2,0.7,0.4,1.4,0.5,2.3h0.1c0.1-0.6,0.2-1.3,0.5-2.3l3.6-11.2L70.8,28.3
		L70.8,28.3z"/>
	<rect x="70.8" y="15.2" class="st0" width="13.5" height="13.1"/>
	<circle class="st0" cx="90.8" cy="8.3" r="6.9"/>
	<circle class="st0" cx="14.4" cy="72" r="13.5"/>
</g>
</svg>
