<?xml version="1.0" encoding="utf-8"?>
<!-- Generator: Adobe Illustrator 27.8.1, SVG Export Plug-In . SVG Version: 6.00 Build 0)  -->
<svg version="1.1" id="Layer_1" xmlns="http://www.w3.org/2000/svg" xmlns:xlink="http://www.w3.org/1999/xlink" x="0px" y="0px"
	 width="80" height="80" viewBox="0 0 80 80" style="enable-background:new 0 0 100 100;" xml:space="preserve">
<style type="text/css">
	.st0{fill:#231F20;}
</style>
<path class="st0" d="M13.95,29.54c-0.71-0.29-1.39-0.42-2.01-0.42c-1.79,0-2.67,0.99-2.67,2.96v2.01h4.06v3.89H9.27v13.96H4.05
	V37.98H1.07v-3.89h2.98v-2.3c0-2.03,0.66-3.67,1.99-4.88c1.33-1.22,3.07-1.83,5.21-1.83c1.1,0,2.01,0.11,2.72,0.33v4.13H13.95z">

	<animateTransform id="feyyentry"
		attributeName="transform"
		attributeType="XML"
		type="translate"
		dur="1s"
		values="0,5;0,-15"
		repeatCount="indefinite" />

</path>

<path class="st0" d="M31.89,44.5H20.14c0.18,2.76,1.86,4.15,5.01,4.15c1.97,0,3.71-0.49,5.21-1.46v3.82
	c-1.63,0.91-3.76,1.37-6.38,1.37c-2.85,0-5.06-0.8-6.63-2.41s-2.36-3.84-2.36-6.69c0-2.85,0.84-5.17,2.52-6.96
	c1.68-1.79,3.78-2.67,6.32-2.67c2.52,0,4.51,0.77,5.94,2.3c1.44,1.52,2.14,3.65,2.14,6.32v2.23H31.89z M27.03,41.23
	c0-2.67-1.08-4-3.25-4c-0.88,0-1.68,0.38-2.36,1.1s-1.13,1.7-1.28,2.92h6.89V41.23z">
	<animateTransform id="feyyentry"
		attributeName="transform"
		attributeType="XML"
		type="translate"
		begin=".1"
		dur="1s"
		values="0,5;0,-15;"
		repeatCount="indefinite" />

</path>

<path class="st0" d="M51.97,34.09l-7.36,19.46c-1.7,4.53-4.26,6.78-7.69,6.78c-1.35,0-2.39-0.13-3.14-0.42v-4.18
	c0.71,0.4,1.48,0.6,2.32,0.6c1.41,0,2.43-0.68,3-2.08l0.99-2.34l-7.22-17.83h5.79l3.49,11.18c0.22,0.68,0.38,1.44,0.46,2.28h0.09
	c0.07-0.57,0.24-1.33,0.53-2.25l3.58-11.22h5.15V34.09z">
	<animateTransform id="feyyentry"
		attributeName="transform"
		attributeType="XML"
		type="translate"
		begin=".2"
		dur="1s"
		values="0,5;0,-15;"
		repeatCount="indefinite" />

</path>

<path class="st0" d="M70.95,34.09l-7.36,19.46c-1.7,4.53-4.26,6.78-7.69,6.78c-1.35,0-2.39-0.13-3.14-0.42v-4.18
	c0.71,0.4,1.48,0.6,2.32,0.6c1.41,0,2.43-0.68,3-2.08l0.99-2.34l-7.22-17.83h5.79l3.49,11.18c0.22,0.68,0.38,1.44,0.46,2.28h0.09
	c0.07-0.57,0.24-1.33,0.53-2.25l3.58-11.22h5.15V34.09z">
	<animateTransform id="feyyentry"
		attributeName="transform"
		attributeType="XML"
		type="translate"
		begin=".3"
		dur="1s"
		values="0,5;0,-15;"
		repeatCount="indefinite" />

</path>

</svg>
